<?xml version="1.0" encoding="UTF-8"?>
<!DOCTYPE svg PUBLIC "-//W3C//DTD SVG 1.1//EN" "http://www.w3.org/Graphics/SVG/1.1/DTD/svg11.dtd">
<!-- Creator: CorelDRAW -->
<svg xmlns="http://www.w3.org/2000/svg" xml:space="preserve" width="5.16124in" height="1.38143in" version="1.1" style="shape-rendering:geometricPrecision; text-rendering:geometricPrecision; image-rendering:optimizeQuality; fill-rule:evenodd; clip-rule:evenodd"
viewBox="0 0 591.99 158.45"
 xmlns:xlink="http://www.w3.org/1999/xlink"
 xmlns:xodm="http://www.corel.com/coreldraw/odm/2003">
 <defs>
  <style type="text/css">
   <![CDATA[
    .str0 {stroke:#ED3237;stroke-width:0.8;stroke-miterlimit:2.61313}
    .fil0 {fill:#ED3237}
   ]]>
  </style>
 </defs>
 <g id="Слой_x0020_1">
  <metadata id="CorelCorpID_0Corel-Layer"/>
  <path class="fil0 str0" d="M39.81 39.81l0 39.41 39.41 0 0 -39.41 -39.41 0zm433.54 -39.41l39.41 0 39.41 0 39.41 0 0 39.41 -39.41 0 0 39.41 0 39.41 0 39.41 -39.41 0 0 -39.41 0 -39.41 0 -39.41 -39.41 0 0 -39.41zm-118.24 118.24l39.41 0 0 -39.41 0 -39.41 -39.41 0 0 39.41 0 39.41zm39.41 39.41l-39.41 0 -39.41 0 0 -39.41 0 -39.41 0 -39.41 0 -39.41 39.41 0 39.41 0 39.41 39.41 0 39.41 0 39.41 0 39.41 -39.41 0zm-197.06 -78.83l39.41 0 0 -39.41 -39.41 0 0 39.41zm39.41 39.41l-39.41 0 0 39.41 -39.41 0 0 -39.41 0 -39.41 0 -39.41 0 -39.41 39.41 0 39.41 0 39.41 0 0 39.41 0 39.41 -39.41 39.41zm-197.06 0l0 39.41 -39.41 0 0 -39.41 0 -39.41 0 -39.41 39.41 -39.41 39.41 0 39.41 0 0 39.41 0 39.41 0 39.41 0 39.41 -39.41 0 0 -39.41 -39.41 0z"/>
 </g>
</svg>
